sfk_cyclingleg_states
version=1
nRows=11
nColumns=53
inDegrees=yes

# SIMM Motion File Header:
name sfk_cyclingleg_states
datacolumns 53
datarows 11
otherdata 1
range 0.00000000 0.03391677
endheader
time	/jointset/bb/crank_angle/value	/jointset/bb/crank_angle/speed	/jointset/spindle/pedal_angle_r/value	/jointset/spindle/pedal_angle_r/speed	/jointset/ground_pelvis/pelvis_tilt/value	/jointset/ground_pelvis/pelvis_tilt/speed	/jointset/ground_pelvis/pelvis_list/value	/jointset/ground_pelvis/pelvis_list/speed	/jointset/ground_pelvis/pelvis_rotation/value	/jointset/ground_pelvis/pelvis_rotation/speed	/jointset/ground_pelvis/pelvis_tx/value	/jointset/ground_pelvis/pelvis_tx/speed	/jointset/ground_pelvis/pelvis_ty/value	/jointset/ground_pelvis/pelvis_ty/speed	/jointset/ground_pelvis/pelvis_tz/value	/jointset/ground_pelvis/pelvis_tz/speed	/jointset/hip_r/hip_angle_r/value	/jointset/hip_r/hip_angle_r/speed	/jointset/hip_r/hip_adduction_r/value	/jointset/hip_r/hip_adduction_r/speed	/jointset/hip_r/hip_rotation_r/value	/jointset/hip_r/hip_rotation_r/speed	/jointset/knee_r/knee_angle_r/value	/jointset/knee_r/knee_angle_r/speed	/jointset/knee_r/tib_tx_r/value	/jointset/knee_r/tib_tx_r/speed	/jointset/knee_r/tib_ty_r/value	/jointset/knee_r/tib_ty_r/speed	/jointset/tib_pat_r/pat_angle_r/value	/jointset/tib_pat_r/pat_angle_r/speed	/jointset/tib_pat_r/pat_tx_r/value	/jointset/tib_pat_r/pat_tx_r/speed	/jointset/tib_pat_r/pat_ty_r/value	/jointset/tib_pat_r/pat_ty_r/speed	/jointset/ankle_r/ankle_angle_r/value	/jointset/ankle_r/ankle_angle_r/speed	/jointset/subtalar_r/subtalar_angle_r/value	/jointset/subtalar_r/subtalar_angle_r/speed	/jointset/mtp_r/mtp_angle_r/value	/jointset/mtp_r/mtp_angle_r/speed	/forceset/bifemlh_r/activation	/forceset/bifemlh_r/fiber_length	/forceset/bifemsh_r/activation	/forceset/bifemsh_r/fiber_length	/forceset/glut_max2_r/activation	/forceset/glut_max2_r/fiber_length	/forceset/vas_int_r/activation	/forceset/vas_int_r/fiber_length	/forceset/med_gas_r/activation	/forceset/med_gas_r/fiber_length	/forceset/tib_ant_r/activation	/forceset/tib_ant_r/fiber_length
      0.00000000	    -10.13487855	   -480.13863232	      8.03341092	    609.62321014	      0.00000000	     -0.00000000	     -0.00000000	     -0.00000000	     -0.00000000	     -0.00000000	     -0.00000000	     -0.00000000	     -0.00000000	      0.00000000	     -0.00000000	      0.00000000	     84.46979388	     17.58800448	      4.10494409	      1.54277142	     -3.54359269	     15.36333090	   -112.80973874	    155.32244865	     -0.00126234	      0.04904428	     -0.49372327	      0.05108793	     17.64771277	     -0.25210942	      0.02299802	      0.07416559	     -0.02403405	      0.01182973	     26.90735729	    -44.76538726	      0.00000000	     -0.00000000	      0.00000000	     -0.00000000	      0.05000000	      0.13940257	      0.05000000	      0.14517511	      0.05000000	      0.15566217	      0.05000000	      0.15936603	      0.05000000	      0.10000000	      0.05000000	      0.10000000
      0.00110511	    -10.66548484	   -480.13863232	      8.70688631	    609.21420269	     -0.00000000	     -0.00000000	      0.00000000	      0.00000000	     -0.00000000	     -0.00000000	     -0.00000000	     -0.00000000	      0.00000000	      0.00000000	      0.00000000	      0.00000000	     84.48804354	     15.43932618	      4.10665912	      1.56099249	     -3.52652753	     15.52030656	   -112.63698124	    157.32710395	     -0.00120792	      0.04944588	     -0.49366642	      0.05179368	     17.64742714	     -0.26486765	      0.02308044	      0.07499544	     -0.02402091	      0.01194992	     26.85773279	    -45.04141331	      0.00000000	      0.00000000	     -0.00000000	     -0.00000000	      0.04921278	      0.13940337	      0.04921278	      0.14517806	      0.04921278	      0.15566293	      0.04921278	      0.15935301	      0.05000000	      0.10000000	      0.05000000	      0.10000000
      0.00545656	    -12.75478540	   -480.13863232	     11.35429850	    607.57285765	     -0.00000000	     -0.00000000	      0.00000000	      0.00000000	     -0.00000000	     -0.00000000	     -0.00000000	     -0.00000000	      0.00000000	      0.00000000	      0.00000000	      0.00000000	     84.53678735	      6.96020037	      4.11360314	      1.62979917	     -3.45768806	     16.11264273	   -111.93543239	    165.07846207	     -0.00098952	      0.05089862	     -0.49343505	      0.05453903	     17.64616189	     -0.31719779	      0.02341371	      0.07815000	     -0.02396792	      0.01239787	     26.65958528	    -45.99534634	      0.00000000	      0.00000000	     -0.00000000	     -0.00000000	      0.04624598	      0.13942340	      0.04624598	      0.14524491	      0.04624598	      0.15567868	      0.04624598	      0.15914104	      0.05000000	      0.10000000	      0.05000000	      0.10000000
      0.00980802	    -14.84408597	   -480.13863232	     13.99447991	    605.89316617	     -0.00000000	     -0.00000000	      0.00000000	      0.00000000	     -0.00000000	      0.00000000	     -0.00000000	     -0.00000000	      0.00000000	      0.00000000	      0.00000000	      0.00000000	     84.54860011	     -1.53095427	      4.12083594	      1.69366719	     -3.38635935	     16.66456816	   -111.20065182	    172.60039616	     -0.00076525	      0.05214547	     -0.49319185	      0.05722866	     17.64466231	     -0.37247636	      0.02376031	      0.08112334	     -0.02391307	      0.01280433	     26.45774143	    -46.74127315	      0.00000000	      0.00000000	     -0.00000000	     -0.00000000	      0.04347837	      0.13947275	      0.04347837	      0.14536902	      0.04347837	      0.15570767	      0.04347837	      0.15879153	      0.05000000	      0.10000000	      0.05000000	      0.10000000
      0.01415947	    -16.93338654	   -480.13863232	     16.62729347	    604.18861597	     -0.00000000	     -0.00000000	      0.00000000	      0.00000000	     -0.00000000	     -0.00000000	     -0.00000000	     -0.00000000	      0.00000000	      0.00000000	      0.00000000	      0.00000000	     84.52347891	    -10.01160013	      4.12833536	      1.75229367	     -3.31271490	     17.17719926	   -110.43364440	    179.89007323	     -0.00053600	      0.05318628	     -0.49293708	      0.05985974	     17.64291681	     -0.43013159	      0.02411945	      0.08391496	     -0.02385655	      0.01316786	     26.25309297	    -47.28553815	      0.00000000	      0.00000000	     -0.00000000	     -0.00000000	      0.04089422	      0.13955049	      0.04089422	      0.14551470	      0.04089422	      0.15574010	      0.04089422	      0.15849356	      0.05000000	      0.10000000	      0.05000000	      0.10000000
      0.01763525	    -18.60224276	   -480.13863232	     18.72493876	    602.81751408	     -0.00000000	     -0.00000000	      0.00000000	      0.00000000	     -0.00000000	      0.00000000	     -0.00000000	     -0.00000000	      0.00000000	      0.00000000	      0.00000000	      0.00000000	     84.47693897	    -16.76369788	      4.13450151	      1.79517896	     -3.25233973	     17.55932989	   -109.79851567	    185.54466872	     -0.00034991	      0.05387019	     -0.49272543	      0.06191745	     17.64133977	     -0.47747203	      0.02441480	      0.08601450	     -0.02381032	      0.01342652	     26.08819122	    -47.58031933	      0.00000000	      0.00000000	     -0.00000000	     -0.00000000	      0.03895235	      0.13962810	      0.03895235	      0.14564055	      0.03895235	      0.15576353	      0.03895235	      0.15817313	      0.05000000	      0.10000000	      0.05000000	      0.10000000
      0.02111103	    -20.27109897	   -480.13863232	     20.81781291	    601.44416517	     -0.00000000	     -0.00000000	      0.00000000	      0.00000000	     -0.00000000	      0.00000000	     -0.00000000	     -0.00000000	      0.00000000	      0.00000000	      0.00000000	      0.00000000	     84.40698067	    -23.48508809	      4.14081045	      1.83443654	     -3.19067735	     17.91800453	   -109.14399325	    191.04934468	     -0.00016167	      0.05442411	     -0.49250670	      0.06393469	     17.63959674	     -0.52558484	      0.02471725	      0.08799892	     -0.02376325	      0.01365635	     25.92247437	    -47.75527377	      0.00000000	      0.00000000	     -0.00000000	     -0.00000000	      0.03711182	      0.13971332	      0.03711182	      0.14577413	      0.03711182	      0.15578235	      0.03711182	      0.15791197	      0.05000000	      0.10000000	      0.05000000	      0.10000000
      0.02477872	    -22.03209993	   -480.13863232	     23.02107199	    599.99836937	     -0.00000000	     -0.00000000	      0.00000000	      0.00000000	     -0.00000000	      0.00000000	     -0.00000000	     -0.00000000	      0.00000000	      0.00000000	      0.00000000	      0.00000000	     84.30790341	    -30.53350122	      4.14760844	      1.87182175	     -3.12430296	     18.27196544	   -108.43287826	    196.69519385	      0.00003880	      0.05486911	     -0.49226838	      0.06601797	     17.63757522	     -0.57679237	      0.02504366	      0.08996910	     -0.02371277	      0.01386696	     25.74717502	    -47.81483688	      0.00000000	      0.00000000	     -0.00000000	     -0.00000000	      0.03527282	      0.13980536	      0.03527282	      0.14592395	      0.03527282	      0.15579585	      0.03527282	      0.15754714	      0.05000000	      0.10000000	      0.05000000	      0.10000000
      0.02844641	    -23.79310089	   -480.13863232	     25.21904325	    598.56159560	     -0.00000000	     -0.00000000	      0.00000000	      0.00000000	     -0.00000000	      0.00000000	     -0.00000000	     -0.00000000	      0.00000000	      0.00000000	      0.00000000	      0.00000000	     84.18307404	    -37.52602188	      4.15453580	      1.90496939	     -3.05667498	     18.60176997	   -107.70136233	    202.17407861	      0.00024064	      0.05517275	     -0.49202250	      0.06805321	     17.63536572	     -0.62801445	      0.02537706	      0.09181354	     -0.02366157	      0.01404420	     25.57188458	    -47.75133951	      0.00000000	      0.00000000	     -0.00000000	     -0.00000000	      0.03353320	      0.13989483	      0.03353320	      0.14608341	      0.03353320	      0.15580211	      0.03353320	      0.15726886	      0.05000000	      0.10000000	      0.05000000	      0.10000000
      0.03085593	    -24.95000023	   -480.13863232	     26.66015441	    597.62509875	     -0.00000000	     -0.00000000	      0.00000000	      0.00000000	     -0.00000000	      0.00000000	     -0.00000000	     -0.00000000	      0.00000000	      0.00000000	      0.00000000	      0.00000000	     84.08715684	    -42.08448276	      4.15914964	      1.92440584	     -3.01160602	     18.80581234	   -107.20998006	    205.68283242	      0.00037374	      0.05529640	     -0.49185694	      0.06936342	     17.63381218	     -0.66145251	      0.02559967	      0.09295765	     -0.02362761	      0.01414220	     25.45694487	    -47.64535296	      0.00000000	      0.00000000	     -0.00000000	     -0.00000000	      0.03244145	      0.13995067	      0.03244145	      0.14619397	      0.03244145	      0.15580185	      0.03244145	      0.15700970	      0.05000000	      0.10000000	      0.05000000	      0.10000000
      0.03391677	    -26.41963189	   -480.13863232	     28.48758697	    596.44634633	     -0.00000000	     -0.00000000	      0.00000000	      0.00000000	      0.00000000	      0.00000000	     -0.00000000	     -0.00000000	      0.00000000	      0.00000000	      0.00000000	      0.00000000	     83.94953620	    -47.82988636	      4.16507438	      1.94639471	     -2.95366491	     19.05115497	   -106.57372316	    210.03685290	      0.00054313	      0.05536812	     -0.49164212	      0.07099636	     17.63172314	     -0.70344416	      0.02588633	      0.09433476	     -0.02358416	      0.01424535	     25.31140389	    -47.44018304	      0.00000000	      0.00000000	     -0.00000000	     -0.00000000	      0.03111001	      0.14001730	      0.03111001	      0.14634013	      0.03111001	      0.15579286	      0.03111001	      0.15673629	      0.05000000	      0.10000000	      0.05000000	      0.10000000
